{"asset": {"version": "2.0", "generator": "ChatGPT Neon Racer V10"}, "scene": 0, "scenes": [{"nodes": [0, 1, 2, 3, 4, 5, 6, 7, 8, 9]}], "nodes": [{"name": "body", "mesh": 0, "translation": [0, 0.75, 0]}, {"name": "front", "mesh": 1, "translation": [0, 1.0, -2.8]}, {"name": "cabin", "mesh": 2, "translation": [0, 1.55, 0.05]}, {"name": "wing", "mesh": 3, "translation": [0, 1.72, 3.45]}, {"name": "wheelFL", "mesh": 4, "translation": [-2.25, 0.5, -2.35]}, {"name": "wheelFR", "mesh": 5, "translation": [2.25, 0.5, -2.35]}, {"name": "wheelRL", "mesh": 6, "translation": [-2.25, 0.5, 2.35]}, {"name": "wheelRR", "mesh": 7, "translation": [2.25, 0.5, 2.35]}, {"name": "tailGlow", "mesh": 8, "translation": [0, 0.95, 3.72]}, {"name": "headGlow", "mesh": 9, "translation": [0, 0.9, -3.72]}], "meshes": [{"name": "body", "primitives": [{"attributes": {"POSITION": 0, "NORMAL": 1}, "indices": 2, "material": 0}]}, {"name": "front", "primitives": [{"attributes": {"POSITION": 3, "NORMAL": 4}, "indices": 5, "material": 0}]}, {"name": "cabin", "primitives": [{"attributes": {"POSITION": 6, "NORMAL": 7}, "indices": 8, "material": 1}]}, {"name": "wing", "primitives": [{"attributes": {"POSITION": 9, "NORMAL": 10}, "indices": 11, "material": 0}]}, {"name": "wheelFL", "primitives": [{"attributes": {"POSITION": 12, "NORMAL": 13}, "indices": 14, "material": 2}]}, {"name": "wheelFR", "primitives": [{"attributes": {"POSITION": 15, "NORMAL": 16}, "indices": 17, "material": 2}]}, {"name": "wheelRL", "primitives": [{"attributes": {"POSITION": 18, "NORMAL": 19}, "indices": 20, "material": 2}]}, {"name": "wheelRR", "primitives": [{"attributes": {"POSITION": 21, "NORMAL": 22}, "indices": 23, "material": 2}]}, {"name": "tailGlow", "primitives": [{"attributes": {"POSITION": 24, "NORMAL": 25}, "indices": 26, "material": 3}]}, {"name": "headGlow", "primitives": [{"attributes": {"POSITION": 27, "NORMAL": 28}, "indices": 29, "material": 4}]}], "materials": [{"name": "Neon Cyan Body", "pbrMetallicRoughness": {"baseColorFactor": [0.0, 0.85, 1.0, 1], "metallicFactor": 0.45, "roughnessFactor": 0.28}, "emissiveFactor": [0.0, 0.25, 0.35]}, {"name": "Glass Black", "pbrMetallicRoughness": {"baseColorFactor": [0.02, 0.04, 0.07, 1], "metallicFactor": 0.65, "roughnessFactor": 0.16}, "emissiveFactor": [0.0, 0.05, 0.08]}, {"name": "Rubber", "pbrMetallicRoughness": {"baseColorFactor": [0.005, 0.005, 0.005, 1], "metallicFactor": 0.1, "roughnessFactor": 0.55}}, {"name": "Tail Red", "pbrMetallicRoughness": {"baseColorFactor": [1, 0.0, 0.08, 1], "metallicFactor": 0.1, "roughnessFactor": 0.25}, "emissiveFactor": [1.0, 0.0, 0.05]}, {"name": "Head Light", "pbrMetallicRoughness": {"baseColorFactor": [0.75, 1.0, 1.0, 1], "metallicFactor": 0.1, "roughnessFactor": 0.2}, "emissiveFactor": [0.55, 0.95, 1.0]}], "buffers": [{"uri": "data:application/octet-stream;base64,", "byteLength": 6480}], "bufferViews": [{"buffer": 0, "byteOffset": 0, "byteLength": 288, "target": 34962}, {"buffer": 0, "byteOffset": 288, "byteLength": 288, "target": 34962}, {"buffer": 0, "byteOffset": 576, "byteLength": 72, "target": 34963}, {"buffer": 0, "byteOffset": 648, "byteLength": 288, "target": 34962}, {"buffer": 0, "byteOffset": 936, "byteLength": 288, "target": 34962}, {"buffer": 0, "byteOffset": 1224, "byteLength": 72, "target": 34963}, {"buffer": 0, "byteOffset": 1296, "byteLength": 288, "target": 34962}, {"buffer": 0, "byteOffset": 1584, "byteLength": 288, "target": 34962}, {"buffer": 0, "byteOffset": 1872, "byteLength": 72, "target": 34963}, {"buffer": 0, "byteOffset": 1944, "byteLength": 288, "target": 34962}, {"buffer": 0, "byteOffset": 2232, "byteLength": 288, "target": 34962}, {"buffer": 0, "byteOffset": 2520, "byteLength": 72, "target": 34963}, {"buffer": 0, "byteOffset": 2592, "byteLength": 288, "target": 34962}, {"buffer": 0, "byteOffset": 2880, "byteLength": 288, "target": 34962}, {"buffer": 0, "byteOffset": 3168, "byteLength": 72, "target": 34963}, {"buffer": 0, "byteOffset": 3240, "byteLength": 288, "target": 34962}, {"buffer": 0, "byteOffset": 3528, "byteLength": 288, "target": 34962}, {"buffer": 0, "byteOffset": 3816, "byteLength": 72, "target": 34963}, {"buffer": 0, "byteOffset": 3888, "byteLength": 288, "target": 34962}, {"buffer": 0, "byteOffset": 4176, "byteLength": 288, "target": 34962}, {"buffer": 0, "byteOffset": 4464, "byteLength": 72, "target": 34963}, {"buffer": 0, "byteOffset": 4536, "byteLength": 288, "target": 34962}, {"buffer": 0, "byteOffset": 4824, "byteLength": 288, "target": 34962}, {"buffer": 0, "byteOffset": 5112, "byteLength": 72, "target": 34963}, {"buffer": 0, "byteOffset": 5184, "byteLength": 288, "target": 34962}, {"buffer": 0, "byteOffset": 5472, "byteLength": 288, "target": 34962}, {"buffer": 0, "byteOffset": 5760, "byteLength": 72, "target": 34963}, {"buffer": 0, "byteOffset": 5832, "byteLength": 288, "target": 34962}, {"buffer": 0, "byteOffset": 6120, "byteLength": 288, "target": 34962}, {"buffer": 0, "byteOffset": 6408, "byteLength": 72, "target": 34963}], "accessors": [{"bufferView": 0, "componentType": 5126, "count": 24, "type": "VEC3", "min": [-2.2, -0.4, -3.6], "max": [2.2, 0.4, 3.6]}, {"bufferView": 1, "componentType": 5126, "count": 24, "type": "VEC3"}, {"bufferView": 2, "componentType": 5123, "count": 36, "type": "SCALAR"}, {"bufferView": 3, "componentType": 5126, "count": 24, "type": "VEC3", "min": [-1.75, -0.275, -1.3], "max": [1.75, 0.275, 1.3]}, {"bufferView": 4, "componentType": 5126, "count": 24, "type": "VEC3"}, {"bufferView": 5, "componentType": 5123, "count": 36, "type": "SCALAR"}, {"bufferView": 6, "componentType": 5126, "count": 24, "type": "VEC3", "min": [-1.275, -0.425, -1.125], "max": [1.275, 0.425, 1.125]}, {"bufferView": 7, "componentType": 5126, "count": 24, "type": "VEC3"}, {"bufferView": 8, "componentType": 5123, "count": 36, "type": "SCALAR"}, {"bufferView": 9, "componentType": 5126, "count": 24, "type": "VEC3", "min": [-2.6, -0.09, -0.375], "max": [2.6, 0.09, 0.375]}, {"bufferView": 10, "componentType": 5126, "count": 24, "type": "VEC3"}, {"bufferView": 11, "componentType": 5123, "count": 36, "type": "SCALAR"}, {"bufferView": 12, "componentType": 5126, "count": 24, "type": "VEC3", "min": [-0.36, -0.36, -0.5], "max": [0.36, 0.36, 0.5]}, {"bufferView": 13, "componentType": 5126, "count": 24, "type": "VEC3"}, {"bufferView": 14, "componentType": 5123, "count": 36, "type": "SCALAR"}, {"bufferView": 15, "componentType": 5126, "count": 24, "type": "VEC3", "min": [-0.36, -0.36, -0.5], "max": [0.36, 0.36, 0.5]}, {"bufferView": 16, "componentType": 5126, "count": 24, "type": "VEC3"}, {"bufferView": 17, "componentType": 5123, "count": 36, "type": "SCALAR"}, {"bufferView": 18, "componentType": 5126, "count": 24, "type": "VEC3", "min": [-0.36, -0.36, -0.5], "max": [0.36, 0.36, 0.5]}, {"bufferView": 19, "componentType": 5126, "count": 24, "type": "VEC3"}, {"bufferView": 20, "componentType": 5123, "count": 36, "type": "SCALAR"}, {"bufferView": 21, "componentType": 5126, "count": 24, "type": "VEC3", "min": [-0.36, -0.36, -0.5], "max": [0.36, 0.36, 0.5]}, {"bufferView": 22, "componentType": 5126, "count": 24, "type": "VEC3"}, {"bufferView": 23, "componentType": 5123, "count": 36, "type": "SCALAR"}, {"bufferView": 24, "componentType": 5126, "count": 24, "type": "VEC3", "min": [-1.6, -0.09, -0.11], "max": [1.6, 0.09, 0.11]}, {"bufferView": 25, "componentType": 5126, "count": 24, "type": "VEC3"}, {"bufferView": 26, "componentType": 5123, "count": 36, "type": "SCALAR"}, {"bufferView": 27, "componentType": 5126, "count": 24, "type": "VEC3", "min": [-1.5, -0.08, -0.09], "max": [1.5, 0.08, 0.09]}, {"bufferView": 28, "componentType": 5126, "count": 24, "type": "VEC3"}, {"bufferView": 29, "componentType": 5123, "count": 36, "type": "SCALAR"}]}